<?xml version="1.0" encoding="utf-8"?>
<svg xmlns="http://www.w3.org/2000/svg" viewBox="0 -0.0656 88 88.1313" width="88px" height="88.1313px"><path d="M 22 5.895 C 41.557 -5.396 64.374 0.25 77.41 15.307 L 61.736 30.982 C 59.961 28.564 57.684 26.496 55 24.947 C 48.96 21.46 42.297 21.204 36.55 23.293 L 20.23 6.973 C 20.81 6.601 21.4 6.242 22 5.895 Z M 88 44 C 88 56.943 82.315 69.076 72.708 77.345 L 57.066 61.703 C 62.378 57.801 66 51.528 66 44 C 66 41.406 65.543 38.877 64.686 36.511 L 81.047 20.149 C 85.407 26.882 88 34.992 88 44 Z M 22 44 C 22 46.577 22.451 49.091 23.297 51.443 L 6.928 67.813 C 2.584 61.087 0 52.991 0 44 C 0 31.023 5.714 18.861 15.367 10.59 L 31.015 26.237 C 25.659 30.136 22 36.434 22 44 Z M 66 82.105 C 46.428 93.405 23.592 87.741 10.56 72.659 L 26.238 56.981 C 28.016 59.415 30.303 61.495 33 63.053 C 39.077 66.561 45.783 66.799 51.553 64.67 L 67.856 80.972 C 67.249 81.363 66.63 81.741 66 82.105 Z" style="filter: none; stroke-miterlimit: 1; stroke-linejoin: round; vector-effect: non-scaling-stroke; paint-order: stroke; fill: rgb(0, 119, 255); stroke: rgba(0, 0, 0, 0); stroke-width: 2px;" id="object-0"/></svg>